<?xml version="1.0" encoding="utf-8"?>
<!-- Generator: Adobe Illustrator 24.1.1, SVG Export Plug-In . SVG Version: 6.00 Build 0)  -->
<svg version="1.1" id="_x31_0" xmlns="http://www.w3.org/2000/svg" xmlns:xlink="http://www.w3.org/1999/xlink" x="0px" y="0px"
	 viewBox="0 0 512 512" style="enable-background:new 0 0 512 512;" xml:space="preserve">
<style type="text/css">
	.st0{fill:#374149;}
</style>
<g>
	<path class="st0" d="M436.566,136.282c-0.004,0-0.008,0-0.012,0c0-0.004,0-0.012,0-0.016c-3.168-0.738-6.41-1.262-9.687-1.672
		c-1.125-0.14-2.262-0.21-3.394-0.312c-2.875-0.258-5.754-0.492-8.703-0.492c-0.59,0-1.16,0.078-1.75,0.09
		c-1.324,0.031-2.648,0.054-3.977,0.164c-1.598-36.159-6.636-58.076-6.636-58.076H7.139c0,0-39.921,173.271,69.037,346.624
		c5.281,8.32,14.562,13.441,24.402,13.441h208.39c9.922,0,19.121-5.121,24.398-13.441c21.281-33.838,36.8-67.595,48.158-100.156
		c1.008,0.363,2.055,0.637,3.074,0.969c0.82,0.266,1.637,0.527,2.465,0.773c2.086,0.618,4.199,1.153,6.339,1.633
		c0.894,0.203,1.782,0.422,2.684,0.598c2.39,0.469,4.816,0.825,7.265,1.114c0.618,0.07,1.223,0.183,1.848,0.246
		c3.164,0.313,6.359,0.508,9.605,0.508c0.473,0,0.95-0.031,1.422-0.046c0.328-0.004,0.656,0,0.98-0.016
		c0.004-0.004,0.004-0.012,0.008-0.015C469.689,326.912,512,283.796,512,231.001C512,184.92,479.763,146.204,436.566,136.282z
		 M202.093,127.165c-24.081,16.398-48.08,37.276-70.239,62.076c-26.718,29.838-47.436,61.599-61.518,92.238
		c-2.718,5.84-11.198,5.117-12.878-1.042c-19.198-70.158-18.082-131.195-14.878-165.752h155.592
		C204.894,114.685,207.69,123.404,202.093,127.165z M427.124,288.198c-3.922,0.879-8.082,1.359-12.32,1.359
		c-0.773,0-1.531-0.082-2.297-0.113c-1.179-0.043-2.363-0.062-3.523-0.176c-1.316-0.133-2.602-0.359-3.894-0.578
		c-0.574-0.098-1.16-0.153-1.73-0.266c-1.629-0.325-3.23-0.738-4.808-1.199c-0.188-0.055-0.387-0.09-0.574-0.149
		c-1.762-0.531-3.488-1.145-5.172-1.84c10.961-41.678,15.359-80.157,16.398-112.476c1.835-0.172,3.687-0.282,5.566-0.282
		c5.504,0,10.797,0.836,15.836,2.266c2.644,0.762,5.238,1.633,7.718,2.738c20.562,9.038,34.959,29.678,34.959,53.518
		C473.282,259.078,453.522,282.519,427.124,288.198z"/>
</g>
</svg>
